HIERARCHY
ROOT pelvis
{
  OFFSET 0 100 0
  CHANNELS 6 Xposition Yposition Zposition Zrotation Xrotation Yrotation
  JOINT pelvis_right_femur
  {
    OFFSET -10.78128 -3.44521 -0.5502486
    CHANNELS 3 Zrotation Xrotation Yrotation
    JOINT right_femur_tibia
    {
      OFFSET -0.8047443 -44.0398 -0.1307829
      CHANNELS 3 Zrotation Xrotation Yrotation
      JOINT right_tibia_foot
      {
        OFFSET 3.006224 -47.83518 -5
        CHANNELS 3 Zrotation Xrotation Yrotation
        End Site
        {
          OFFSET 0 -5 15
        }
      }
    }
  }
  JOINT pelvis_left_femur
  {
    OFFSET 10.78128 -3.44521 -0.5502486
    CHANNELS 3 Zrotation Xrotation Yrotation
    JOINT left_femur_tibia
    {
      OFFSET 0.8047443 -44.0398 -0.1307829
      CHANNELS 3 Zrotation Xrotation Yrotation
      JOINT left_tibia_foot
      {
        OFFSET -4.370144 -48.10324 -4.275266
        CHANNELS 3 Zrotation Xrotation Yrotation
        End Site
        {
          OFFSET 0 -5 15
        }
      }
    }
  }
  JOINT pelvis_spine1
  {
    OFFSET 0 6.468898 -3.129235
    CHANNELS 3 Zrotation Xrotation Yrotation
    JOINT spine1
    {
      OFFSET 0 23.15396 4.99043
      CHANNELS 3 Zrotation Xrotation Yrotation
      JOINT spine2
      {
        OFFSET 0 20.79997 -5.064912
        CHANNELS 3 Zrotation Xrotation Yrotation
        JOINT neck
        {
          OFFSET 0 14.38658 9.616178
          CHANNELS 3 Zrotation Xrotation Yrotation
          End Site
          {
            OFFSET 0 20 0
          }
        }
      }
      JOINT right_manubrium
      {
        OFFSET -5.722621 16.35077 3.967754
        CHANNELS 3 Zrotation Xrotation Yrotation
        JOINT right_clavicle
        {
          OFFSET -13.16364 1.694482 -4.693211
          CHANNELS 3 Zrotation Xrotation Yrotation
          JOINT right_humerus
          {
            OFFSET -28.5034 -0.3100689 -2.792744
            CHANNELS 3 Zrotation Xrotation Yrotation
            JOINT right_radius
            {
              OFFSET -25.15693 0.02248979 -1.271978
              CHANNELS 3 Zrotation Xrotation Yrotation
              End Site
              {
                OFFSET -15 0 0
              }
            }
          }
        }
      }
      JOINT left_manubrium
      {
        OFFSET 5.722621 16.35077 3.967754
        CHANNELS 3 Zrotation Xrotation Yrotation
        JOINT left_clavicle
        {
          OFFSET 13.16364 1.694482 -4.693211
          CHANNELS 3 Zrotation Xrotation Yrotation
          JOINT left_humerus
          {
            OFFSET 29.39168 -1.063119 -2.237045
            CHANNELS 3 Zrotation Xrotation Yrotation
            JOINT left_radius
            {
              OFFSET 24.59957 -0.9528479 0.9047498
              CHANNELS 3 Zrotation Xrotation Yrotation
              End Site
              {
                OFFSET 15 -0 -0
              }
            }
          }
        }
      }
    }
  }
}
MOTION
Frames: 21
Frame Time: 0.0416666666667
1522.748 83.80359 2243.285 8.250016 1.713481 92.15685 -0.2000221 -22.69699 0.9392813 -0 19.27208 -0 -3.291077 -8.062049 -10.07633 -4.558426 18.30688 -8.812719 -0 18.9612 -0 -5.917293 -19.61523 13.40693 -2.557586 0.9555588 1.44668 0.824502 7.324254 -6.972161 3.672411 24.44887 3.707143 0.6104609 -14.42019 8.265978 -1.051557 -12.42598 8.17275 91.68274 20.31116 -20.45119 -0 0 7.916302 -17.41899 9.888927 6.505089 6.385249 -20.85812 -4.417313 -79.94769 25.23696 -0.2985745 0 0 -23.78661 3.096477 10.9278 8.29847
1529.427 82.89686 2243.598 4.873165 1.351944 92.67365 1.364793 -27.53232 2.928765 -0 13.61395 -0 -3.23372 -6.665752 -10.3311 -4.486374 20.83545 -9.1953 -0 24.46826 -0 -7.16163 -19.90135 11.18074 -2.926822 0.617927 1.768511 1.882884 7.019541 -7.970782 3.425513 22.64519 4.102618 1.261239 -16.73029 8.050402 1.160406 -11.37839 8.378951 90.84647 25.08738 -22.86925 -0 0 6.885215 -14.37836 11.20324 5.193774 6.28418 -21.07379 -3.397994 -79.22099 26.05083 -0.3591425 0 0 -26.32857 2.400784 9.19202 9.602016
1536.351 82.16807 2243.795 3.172119 1.003856 93.11557 2.704299 -27.8219 4.162871 -0 13.16357 -0 -1.690887 -3.656916 -9.962565 -4.493326 20.23599 -8.795613 -0 27.85588 -0 -7.346921 -18.18843 10.60272 -2.779099 0.1552383 2.205385 2.442865 7.968711 -8.789508 2.496695 21.17547 5.121042 2.153649 -18.44147 7.473071 3.123791 -11.88396 9.404404 90.42739 28.63208 -24.19559 -0 0 6.353727 -14.79871 12.60701 6.457524 6.083251 -21.39868 -3.477386 -79.70148 25.17371 1.993598 0 0 -27.8166 1.695522 7.009327 11.17564
1543.548 81.69094 2244.044 4.755285 0.8044807 93.23845 3.66163 -24.19742 5.298738 -0 15.9309 -0 -0.849294 -3.74476 -10.4792 -4.055521 19.85951 -8.232952 -0 34.79666 -0 -8.52603 -15.05792 11.6848 -1.971099 0.07194937 2.243937 2.173918 8.417438 -8.62376 2.461377 21.42417 5.037159 1.992632 -17.9127 7.377057 2.748185 -12.08939 9.575179 91.24946 27.63706 -24.23171 -0 0 5.859885 -15.461 12.37866 6.494152 5.580908 -21.01869 -3.696037 -79.77125 24.75519 2.321157 0 0 -27.45134 1.224581 6.077901 11.88961
1550.823 81.9136 2244.4 7.173522 0.5663958 92.96458 4.732607 -19.00688 6.433086 -0 19.81447 -0 -1.109385 -5.325795 -10.85929 -3.438009 18.12662 -8.052249 -0 44.60273 -0 -9.603786 -11.5234 13.43942 -1.085637 0.3857006 2.321952 1.805361 8.538025 -7.827694 2.89103 22.38211 4.390011 1.490745 -16.90484 7.434969 1.979543 -12.19805 9.54424 91.64494 25.4923 -22.96164 -0 0 5.733783 -15.25905 11.63475 5.859516 4.725952 -19.94518 -3.860478 -80.65624 25.23324 3.034942 0 0 -25.23096 0.7155355 6.198464 12.48026
1557.869 82.65745 2244.815 9.438074 0.5190878 92.37909 5.278779 -12.98081 6.822269 -0 22.53931 -0 -1.890513 -7.207686 -10.76172 -2.976833 14.04678 -7.984121 -0 52.20754 -0 -9.943512 -9.000072 15.3882 -0.6065624 0.9832156 2.690936 1.442213 8.545161 -6.653111 3.437816 23.55273 3.575178 1.024583 -15.85815 7.406532 1.271068 -12.60262 9.603596 91.20496 23.27681 -20.51494 -0 0 6.421443 -15.15487 10.80337 5.62331 3.998951 -18.61498 -4.008216 -82.52122 25.96559 4.814951 0 0 -21.77706 0.175237 7.12268 12.96015
1564.513 83.51911 2245.217 11.22132 0.6819574 91.61182 5.193566 -6.403076 6.525316 -0 23.64595 -0 -2.745074 -9.266758 -10.23796 -2.677691 7.936273 -7.854126 -0 55.57759 -0 -9.696349 -7.706727 17.28292 -0.5709188 1.717757 3.330569 1.043099 8.408706 -5.295645 3.936109 24.7161 2.807608 0.6791958 -14.85125 7.28316 0.6133328 -13.32094 9.709724 90.13149 21.39344 -17.27574 -0 0 7.962943 -15.48453 9.919711 5.980229 3.586279 -17.22897 -4.043961 -84.94328 26.63229 7.334057 0 0 -17.79457 -0.4043911 8.393496 13.35447
1570.767 84.12977 2245.528 12.358 0.9631688 90.78258 4.649028 0.3194305 5.822346 -0 23.43493 -0 -3.319637 -11.41835 -9.345302 -2.43224 0.6244659 -7.579713 -0 54.28561 -0 -9.078505 -7.3959 18.99813 -0.8369928 2.404059 4.138409 0.5867062 8.134462 -3.952435 4.261239 25.68358 2.258101 0.4753863 -13.99351 7.111649 -0.02101442 -14.31337 9.806277 88.6909 20.02852 -13.69704 -0 0 10.20922 -16.33275 9.009273 6.876138 3.503012 -15.93711 -3.925673 -87.4315 27.01219 10.18371 0 0 -13.97143 -0.9422499 9.571107 13.65316
1576.786 84.28245 2245.684 12.84937 1.23685 89.98511 3.874678 6.565377 4.965589 -0 22.84739 -0 -3.437191 -13.43932 -8.207787 -2.156659 -6.575472 -7.190872 -0 48.88958 -0 -8.235248 -7.679908 20.44144 -1.207169 2.844837 4.926573 0.07660861 7.765543 -2.798935 4.373461 26.33806 1.991629 0.3810828 -13.34019 6.953517 -0.655072 -15.45993 9.840211 87.19515 19.10632 -10.24745 -0 0 12.83191 -17.62046 8.138726 8.107824 3.652409 -14.84539 -3.710293 -89.53407 27.03157 12.92436 0 0 -10.76533 -1.314064 10.4617 13.80042
1582.791 84.01234 2245.643 12.77847 1.418247 89.28522 3.053271 11.71423 4.164856 -0 23.12188 -0 -3.030777 -14.79255 -6.99206 -1.911378 -12.36932 -6.807088 -0 41.10941 -0 -7.236222 -8.108384 21.50585 -1.546344 2.862765 5.551621 -0.4451238 7.45297 -1.975781 4.301042 26.59146 1.990327 0.3847267 -12.92734 6.832073 -1.179763 -16.59927 9.827394 85.90229 18.51645 -7.409674 -0 0 15.41259 -19.2147 7.480901 9.465234 3.868362 -14.0396 -3.523131 -91.02956 26.6961 15.33451 0 0 -8.327286 -1.466247 11.03085 13.80002
1588.978 83.58186 2245.381 12.21811 1.55712 88.75014 2.194933 15.22996 3.647725 -0 25.50552 -0 -2.069358 -14.69629 -5.886453 -1.953363 -15.92172 -6.631359 -0 33.31729 -0 -6.146671 -8.415563 22.00275 -1.881874 2.375855 6.021151 -0.9182882 7.415893 -1.57258 4.091064 26.35016 2.216206 0.5213775 -12.82734 6.731356 -1.329716 -17.57714 9.854719 84.92368 18.35906 -5.626239 -0 0 17.58289 -20.92238 7.260005 10.78008 3.978001 -13.58686 -3.460293 -91.90945 26.05989 17.45069 0 0 -6.703103 -1.515692 11.17709 13.8273
1595.431 83.36615 2244.881 11.22703 1.803746 88.49066 1.210661 16.56914 3.637344 -0 30.90827 -0 -0.6048224 -12.5547 -5.097152 -2.559653 -17.00749 -6.826439 -0 27.67819 -0 -5.108515 -8.687255 21.66385 -2.339629 1.492491 6.443405 -1.279785 7.812068 -1.634304 3.749536 25.55416 2.654464 0.8238281 -13.16292 6.621262 -0.7891316 -18.27562 10.03465 84.21523 18.98165 -5.201326 -0 0 19.10114 -22.4072 7.63615 11.88384 3.865859 -13.52304 -3.508612 -92.2088 25.23625 19.37258 0 0 -6.068206 -1.65946 10.67621 14.15478
1602.056 83.65703 2244.141 10.01719 2.214153 88.66559 0.1891614 15.26924 4.075247 -0 39.37635 -0 1.110955 -8.655247 -4.820835 -3.71172 -15.82248 -7.363142 -0 24.89814 -0 -4.292099 -9.253392 20.39686 -2.929579 0.5161614 6.802894 -1.488015 8.613698 -2.145681 3.259799 24.33665 3.279102 1.234709 -13.92786 6.505683 0.517575 -18.63426 10.40884 83.76441 20.49618 -6.134074 -0 0 19.90282 -23.30584 8.606033 12.60352 3.576168 -13.84983 -3.597313 -91.93459 24.39511 20.96206 0 0 -6.508734 -1.886899 9.533379 14.78739
1608.604 84.52534 2243.184 8.769989 2.605936 89.40637 -0.5344474 11.13969 4.589356 -0 49.3758 -0 2.748535 -4.26156 -5.047184 -4.993027 -12.84388 -7.998705 -0 23.72887 -0 -3.816788 -10.3535 18.4235 -3.453376 -0.2600188 6.918668 -1.492397 9.66174 -3.105824 2.582697 22.94521 4.11836 1.680031 -14.99221 6.432718 2.372299 -18.7011 10.91678 83.56143 22.69408 -8.139028 -0 0 20.13502 -23.52787 10.08625 12.93231 3.344256 -14.62513 -3.670853 -91.12134 23.67476 21.84954 0 0 -7.950837 -1.97762 7.988559 15.43639
1614.817 85.80945 2242.046 7.250534 2.683128 90.70957 -0.7063702 4.448489 4.94416 -0 57.7355 -0 4.086405 -0.6884675 -5.50909 -5.898033 -8.894785 -8.438865 -0 22.18536 -0 -3.690201 -11.94634 16.14982 -3.715507 -0.7222605 6.676505 -1.161352 10.74473 -4.595713 1.672368 21.48818 5.290469 2.202251 -16.36756 6.449355 4.495431 -18.59221 11.45073 83.39931 25.70008 -10.78673 -0 0 19.99811 -23.3088 11.92965 13.14893 3.408232 -15.89268 -3.652472 -89.86064 23.11733 21.75892 0 0 -10.38918 -1.869814 6.033463 15.98123
1620.597 87.1105 2240.776 5.412723 2.305602 92.37166 -0.3444256 -3.614072 5.14346 -0 60.8292 -0 4.862182 1.375988 -6.019351 -6.178701 -4.822515 -8.540467 -0 19.40752 -0 -3.705421 -13.71742 14.19579 -3.691818 -0.8083684 6.095659 -0.4182215 11.55195 -6.472043 0.6964148 20.16741 6.640907 2.781117 -17.93395 6.564645 6.344012 -18.36612 11.85103 83.32057 29.34314 -13.51462 -0 0 19.4266 -22.96504 13.65005 13.5333 3.78204 -17.38552 -3.571584 -88.33135 22.72235 20.58163 0 0 -13.5595 -1.695428 3.785681 16.42983
1626.048 87.85117 2239.495 4.424776 1.767988 94.02236 0.1849654 -10.77914 4.87635 -0 56.78671 -0 4.525315 1.433818 -6.646116 -5.930432 -0.5702033 -8.432911 -0 16.2185 -0 -3.556462 -15.2168 13.36206 -3.413526 -0.4331796 5.127713 0.3924621 11.67084 -7.943655 0.1955004 19.7856 7.455006 3.040955 -18.74796 6.798141 6.680756 -17.90237 11.79421 84.12551 31.34832 -15.75407 -0 0 17.90341 -22.62296 14.29325 13.76134 4.302883 -18.60374 -3.774881 -86.64932 22.62762 17.85306 0 0 -16.66108 -1.326241 2.556445 16.22039
1631.391 87.59675 2238.408 5.49708 1.668626 95.32344 0.2383482 -15.28818 3.572395 -0 46.96878 -0 2.685219 -0.7573503 -7.465696 -5.464048 4.575414 -8.360459 -0 14.02194 -0 -3.352985 -16.34961 13.80305 -2.958652 0.242538 3.776086 0.6982863 10.89451 -8.166441 0.6535011 21.05103 7.061071 2.580897 -17.77002 7.183121 4.626073 -16.92572 11.00401 86.39609 29.08309 -17.26715 -0 0 15.0667 -22.12214 13.26522 12.96957 4.907695 -19.43325 -4.461861 -84.7219 22.97989 12.98786 0 0 -19.11364 -0.3029468 3.995358 14.42437
1636.929 86.40289 2237.684 7.741055 2.094453 96.15691 -0.235229 -17.912 1.637547 -0 34.46234 -0 -0.1616326 -4.425106 -8.530034 -5.008074 10.65747 -8.430016 -0 13.99105 -0 -3.787403 -17.5933 14.49158 -2.547556 0.8178617 2.386531 0.5422711 9.410161 -7.41893 1.972217 23.25623 5.587288 1.562243 -15.57116 7.708317 1.216004 -15.24926 9.6724 89.4277 23.7338 -18.32999 -0 0 11.54367 -20.99531 11.27894 10.70391 5.635791 -20.13399 -5.065209 -82.57527 23.72864 6.599328 0 0 -21.0472 1.436133 7.622213 11.24182
1642.973 84.85818 2237.323 8.554625 2.427446 96.6784 -0.4047404 -21.18278 0.7204595 -0 22.41625 -0 -2.77073 -7.613744 -9.752669 -4.642254 16.6997 -8.681215 -0 17.21336 -0 -5.304617 -19.17257 13.97349 -2.477585 0.9954488 1.526858 0.6250273 7.742135 -6.895651 3.400893 24.54303 3.990957 0.6918667 -14.25959 8.19072 -1.030077 -13.08087 8.414329 91.51625 20.15227 -19.76817 -0 0 8.571705 -18.53305 9.921522 7.475598 6.281324 -20.73045 -4.748114 -80.49737 24.83125 0.8557888 0 0 -23.03476 2.937661 10.64559 8.581538
1649.543 83.76227 2237.108 5.950045 2.002484 97.19974 0.764651 -26.19637 2.201349 -0 14.73184 -0 -3.528058 -7.549083 -10.38969 -4.475572 20.48761 -9.113966 -0 22.92043 -0 -6.938399 -20.03511 11.8489 -2.820213 0.753432 1.597866 1.516046 6.927264 -7.573255 3.676537 23.3785 3.781849 0.9239335 -15.80608 8.194681 0.1973832 -11.50304 8.145667 91.23004 23.11098 -22.12242 -0 0 7.090742 -15.09614 10.60513 5.245344 6.365853 -21.01109 -3.642825 -79.26003 25.94042 -0.8992537 0 0 -25.52438 2.750746 10.07114 8.923948
